<?xml version="1.0" encoding="UTF-8" standalone="no"?>
<!DOCTYPE svg PUBLIC "-//W3C//DTD SVG 1.1//EN"
 "http://www.w3.org/Graphics/SVG/1.1/DTD/svg11.dtd">
<!-- Generated by graphviz version 2.47.0 (20210316.0004)
 -->
<!-- Title: dependencies Pages: 1 -->
<svg width="2387pt" height="284pt"
 viewBox="0.00 0.00 2387.00 284.00" xmlns="http://www.w3.org/2000/svg" xmlns:xlink="http://www.w3.org/1999/xlink">
<g id="graph0" class="graph" transform="scale(1 1) rotate(0) translate(4 280)">
<title>dependencies</title>
<polygon fill="white" stroke="transparent" points="-4,4 -4,-280 2383,-280 2383,4 -4,4"/>
<text text-anchor="start" x="1168.51" y="-42.4" font-family="sans-serif" font-weight="bold" font-size="14.00">Legend</text>
<polygon fill="#ffffb3" stroke="transparent" points="955.5,-10 955.5,-30 975.5,-30 975.5,-10 955.5,-10"/>
<text text-anchor="start" x="979.13" y="-15.4" font-family="sans-serif" font-size="14.00"> &#160;Declarations</text>
<polygon fill="#8dd3c7" stroke="transparent" points="1068.5,-10 1068.5,-30 1088.5,-30 1088.5,-10 1068.5,-10"/>
<text text-anchor="start" x="1092.23" y="-15.4" font-family="sans-serif" font-size="14.00"> &#160;Module</text>
<polygon fill="#80b1d3" stroke="transparent" points="1154.5,-10 1154.5,-30 1174.5,-30 1174.5,-10 1154.5,-10"/>
<text text-anchor="start" x="1178.28" y="-15.4" font-family="sans-serif" font-size="14.00"> &#160;Bootstrap</text>
<polygon fill="#fdb462" stroke="transparent" points="1251.5,-10 1251.5,-30 1271.5,-30 1271.5,-10 1251.5,-10"/>
<text text-anchor="start" x="1275.17" y="-15.4" font-family="sans-serif" font-size="14.00"> &#160;Providers</text>
<polygon fill="#fb8072" stroke="transparent" points="1347.5,-10 1347.5,-30 1367.5,-30 1367.5,-10 1347.5,-10"/>
<text text-anchor="start" x="1371.23" y="-15.4" font-family="sans-serif" font-size="14.00"> &#160;Exports</text>
<g id="clust1" class="cluster">
<title>cluster_AppModule</title>
<polygon fill="none" stroke="black" stroke-dasharray="1,5" points="8,-70 8,-268 2371,-268 2371,-70 8,-70"/>
</g>
<g id="clust2" class="cluster">
<title>cluster_AppModule_declarations</title>
<polygon fill="none" stroke="black" points="168,-78 168,-130 2363,-130 2363,-78 168,-78"/>
</g>
<g id="clust18" class="cluster">
<title>cluster_AppModule_imports</title>
<polygon fill="none" stroke="black" points="16,-78 16,-130 160,-130 160,-78 16,-78"/>
</g>
<g id="clust20" class="cluster">
<title>cluster_AppModule_bootstrap</title>
<polygon fill="none" stroke="black" points="1163,-208 1163,-260 1287,-260 1287,-208 1163,-208"/>
</g>
<!-- AppComponent -->
<g id="node1" class="node">
<title>AppComponent</title>
<polygon fill="#ffffb3" stroke="black" points="2354.94,-122 2249.06,-122 2249.06,-86 2354.94,-86 2354.94,-122"/>
<text text-anchor="middle" x="2302" y="-99.8" font-family="Times,serif" font-size="14.00">AppComponent</text>
</g>
<!-- AppModule -->
<g id="node16" class="node">
<title>AppModule</title>
<polygon fill="#8dd3c7" stroke="black" points="1266.66,-187 1263.66,-191 1242.66,-191 1239.66,-187 1183.34,-187 1183.34,-151 1266.66,-151 1266.66,-187"/>
<text text-anchor="middle" x="1225" y="-164.8" font-family="Times,serif" font-size="14.00">AppModule</text>
</g>
<!-- AppComponent&#45;&gt;AppModule -->
<g id="edge1" class="edge">
<title>AppComponent&#45;&gt;AppModule</title>
<path fill="none" stroke="black" d="M2302,-122.32C2302,-145.66 2302,-183 2302,-183 2302,-183 1276.89,-183 1276.89,-183"/>
<polygon fill="black" stroke="black" points="1276.89,-179.5 1266.89,-183 1276.89,-186.5 1276.89,-179.5"/>
</g>
<!-- CadastrarComponent -->
<g id="node2" class="node">
<title>CadastrarComponent</title>
<polygon fill="#ffffb3" stroke="black" points="2231.47,-122 2096.53,-122 2096.53,-86 2231.47,-86 2231.47,-122"/>
<text text-anchor="middle" x="2164" y="-99.8" font-family="Times,serif" font-size="14.00">CadastrarComponent</text>
</g>
<!-- CadastrarComponent&#45;&gt;AppModule -->
<g id="edge2" class="edge">
<title>CadastrarComponent&#45;&gt;AppModule</title>
<path fill="none" stroke="black" d="M2164,-122.29C2164,-144.21 2164,-178 2164,-178 2164,-178 1276.86,-178 1276.86,-178"/>
<polygon fill="black" stroke="black" points="1276.86,-174.5 1266.86,-178 1276.86,-181.5 1276.86,-174.5"/>
</g>
<!-- ContatoComponent -->
<g id="node3" class="node">
<title>ContatoComponent</title>
<polygon fill="#ffffb3" stroke="black" points="2078.67,-122 1953.33,-122 1953.33,-86 2078.67,-86 2078.67,-122"/>
<text text-anchor="middle" x="2016" y="-99.8" font-family="Times,serif" font-size="14.00">ContatoComponent</text>
</g>
<!-- ContatoComponent&#45;&gt;AppModule -->
<g id="edge3" class="edge">
<title>ContatoComponent&#45;&gt;AppModule</title>
<path fill="none" stroke="black" d="M2016,-122.03C2016,-142.77 2016,-174 2016,-174 2016,-174 1276.69,-174 1276.69,-174"/>
<polygon fill="black" stroke="black" points="1276.69,-170.5 1266.69,-174 1276.69,-177.5 1276.69,-170.5"/>
</g>
<!-- EntrarComponent -->
<g id="node4" class="node">
<title>EntrarComponent</title>
<polygon fill="#ffffb3" stroke="black" points="1935.31,-122 1818.69,-122 1818.69,-86 1935.31,-86 1935.31,-122"/>
<text text-anchor="middle" x="1877" y="-99.8" font-family="Times,serif" font-size="14.00">EntrarComponent</text>
</g>
<!-- EntrarComponent&#45;&gt;AppModule -->
<g id="edge4" class="edge">
<title>EntrarComponent&#45;&gt;AppModule</title>
<path fill="none" stroke="black" d="M1877,-122.11C1877,-141.34 1877,-169 1877,-169 1877,-169 1276.78,-169 1276.78,-169"/>
<polygon fill="black" stroke="black" points="1276.78,-165.5 1266.78,-169 1276.78,-172.5 1276.78,-165.5"/>
</g>
<!-- HomeComponent -->
<g id="node5" class="node">
<title>HomeComponent</title>
<polygon fill="#ffffb3" stroke="black" points="1800.55,-122 1685.45,-122 1685.45,-86 1800.55,-86 1800.55,-122"/>
<text text-anchor="middle" x="1743" y="-99.8" font-family="Times,serif" font-size="14.00">HomeComponent</text>
</g>
<!-- HomeComponent&#45;&gt;AppModule -->
<g id="edge5" class="edge">
<title>HomeComponent&#45;&gt;AppModule</title>
<path fill="none" stroke="black" d="M1743,-122.3C1743,-140.27 1743,-165 1743,-165 1743,-165 1276.95,-165 1276.95,-165"/>
<polygon fill="black" stroke="black" points="1276.95,-161.5 1266.95,-165 1276.95,-168.5 1276.95,-161.5"/>
</g>
<!-- InicioComponent -->
<g id="node6" class="node">
<title>InicioComponent</title>
<polygon fill="#ffffb3" stroke="black" points="1666.99,-122 1553.01,-122 1553.01,-86 1666.99,-86 1666.99,-122"/>
<text text-anchor="middle" x="1610" y="-99.8" font-family="Times,serif" font-size="14.00">InicioComponent</text>
</g>
<!-- InicioComponent&#45;&gt;AppModule -->
<g id="edge6" class="edge">
<title>InicioComponent&#45;&gt;AppModule</title>
<path fill="none" stroke="black" d="M1610,-122.03C1610,-138.4 1610,-160 1610,-160 1610,-160 1276.93,-160 1276.93,-160"/>
<polygon fill="black" stroke="black" points="1276.93,-156.5 1266.93,-160 1276.93,-163.5 1276.93,-156.5"/>
</g>
<!-- MenuComponent -->
<g id="node7" class="node">
<title>MenuComponent</title>
<polygon fill="#ffffb3" stroke="black" points="1534.99,-122 1421.01,-122 1421.01,-86 1534.99,-86 1534.99,-122"/>
<text text-anchor="middle" x="1478" y="-99.8" font-family="Times,serif" font-size="14.00">MenuComponent</text>
</g>
<!-- MenuComponent&#45;&gt;AppModule -->
<g id="edge7" class="edge">
<title>MenuComponent&#45;&gt;AppModule</title>
<path fill="none" stroke="black" d="M1478,-122.19C1478,-137.18 1478,-156 1478,-156 1478,-156 1276.78,-156 1276.78,-156"/>
<polygon fill="black" stroke="black" points="1276.78,-152.5 1266.78,-156 1276.78,-159.5 1276.78,-152.5"/>
</g>
<!-- PostagemDeleteComponent -->
<g id="node8" class="node">
<title>PostagemDeleteComponent</title>
<polygon fill="#ffffb3" stroke="black" points="1403.3,-122 1230.7,-122 1230.7,-86 1403.3,-86 1403.3,-122"/>
<text text-anchor="middle" x="1317" y="-99.8" font-family="Times,serif" font-size="14.00">PostagemDeleteComponent</text>
</g>
<!-- PostagemDeleteComponent&#45;&gt;AppModule -->
<g id="edge8" class="edge">
<title>PostagemDeleteComponent&#45;&gt;AppModule</title>
<path fill="none" stroke="black" d="M1248.84,-122.11C1248.84,-122.11 1248.84,-140.99 1248.84,-140.99"/>
<polygon fill="black" stroke="black" points="1245.34,-140.99 1248.84,-150.99 1252.34,-140.99 1245.34,-140.99"/>
</g>
<!-- PostagemEditComponent -->
<g id="node9" class="node">
<title>PostagemEditComponent</title>
<polygon fill="#ffffb3" stroke="black" points="1212.6,-122 1053.4,-122 1053.4,-86 1212.6,-86 1212.6,-122"/>
<text text-anchor="middle" x="1133" y="-99.8" font-family="Times,serif" font-size="14.00">PostagemEditComponent</text>
</g>
<!-- PostagemEditComponent&#45;&gt;AppModule -->
<g id="edge9" class="edge">
<title>PostagemEditComponent&#45;&gt;AppModule</title>
<path fill="none" stroke="black" d="M1197.86,-122.11C1197.86,-122.11 1197.86,-140.99 1197.86,-140.99"/>
<polygon fill="black" stroke="black" points="1194.36,-140.99 1197.86,-150.99 1201.36,-140.99 1194.36,-140.99"/>
</g>
<!-- RodapeComponent -->
<g id="node10" class="node">
<title>RodapeComponent</title>
<polygon fill="#ffffb3" stroke="black" points="1035.1,-122 910.9,-122 910.9,-86 1035.1,-86 1035.1,-122"/>
<text text-anchor="middle" x="973" y="-99.8" font-family="Times,serif" font-size="14.00">RodapeComponent</text>
</g>
<!-- RodapeComponent&#45;&gt;AppModule -->
<g id="edge10" class="edge">
<title>RodapeComponent&#45;&gt;AppModule</title>
<path fill="none" stroke="black" d="M973,-122.19C973,-137.18 973,-156 973,-156 973,-156 1173.1,-156 1173.1,-156"/>
<polygon fill="black" stroke="black" points="1173.1,-159.5 1183.1,-156 1173.1,-152.5 1173.1,-159.5"/>
</g>
<!-- SobreComponent -->
<g id="node11" class="node">
<title>SobreComponent</title>
<polygon fill="#ffffb3" stroke="black" points="892.99,-122 779.01,-122 779.01,-86 892.99,-86 892.99,-122"/>
<text text-anchor="middle" x="836" y="-99.8" font-family="Times,serif" font-size="14.00">SobreComponent</text>
</g>
<!-- SobreComponent&#45;&gt;AppModule -->
<g id="edge11" class="edge">
<title>SobreComponent&#45;&gt;AppModule</title>
<path fill="none" stroke="black" d="M836,-122.03C836,-138.4 836,-160 836,-160 836,-160 1173,-160 1173,-160"/>
<polygon fill="black" stroke="black" points="1173,-163.5 1183,-160 1173,-156.5 1173,-163.5"/>
</g>
<!-- TemaComponent -->
<g id="node12" class="node">
<title>TemaComponent</title>
<polygon fill="#ffffb3" stroke="black" points="760.7,-122 647.3,-122 647.3,-86 760.7,-86 760.7,-122"/>
<text text-anchor="middle" x="704" y="-99.8" font-family="Times,serif" font-size="14.00">TemaComponent</text>
</g>
<!-- TemaComponent&#45;&gt;AppModule -->
<g id="edge12" class="edge">
<title>TemaComponent&#45;&gt;AppModule</title>
<path fill="none" stroke="black" d="M704,-122.3C704,-140.27 704,-165 704,-165 704,-165 1173.25,-165 1173.25,-165"/>
<polygon fill="black" stroke="black" points="1173.25,-168.5 1183.25,-165 1173.25,-161.5 1173.25,-168.5"/>
</g>
<!-- TemaDeleteComponent -->
<g id="node13" class="node">
<title>TemaDeleteComponent</title>
<polygon fill="#ffffb3" stroke="black" points="629.74,-122 480.26,-122 480.26,-86 629.74,-86 629.74,-122"/>
<text text-anchor="middle" x="555" y="-99.8" font-family="Times,serif" font-size="14.00">TemaDeleteComponent</text>
</g>
<!-- TemaDeleteComponent&#45;&gt;AppModule -->
<g id="edge13" class="edge">
<title>TemaDeleteComponent&#45;&gt;AppModule</title>
<path fill="none" stroke="black" d="M555,-122.11C555,-141.34 555,-169 555,-169 555,-169 1173.34,-169 1173.34,-169"/>
<polygon fill="black" stroke="black" points="1173.34,-172.5 1183.34,-169 1173.34,-165.5 1173.34,-172.5"/>
</g>
<!-- TemaEditComponent -->
<g id="node14" class="node">
<title>TemaEditComponent</title>
<polygon fill="#ffffb3" stroke="black" points="462.04,-122 325.96,-122 325.96,-86 462.04,-86 462.04,-122"/>
<text text-anchor="middle" x="394" y="-99.8" font-family="Times,serif" font-size="14.00">TemaEditComponent</text>
</g>
<!-- TemaEditComponent&#45;&gt;AppModule -->
<g id="edge14" class="edge">
<title>TemaEditComponent&#45;&gt;AppModule</title>
<path fill="none" stroke="black" d="M394,-122.03C394,-142.77 394,-174 394,-174 394,-174 1173.22,-174 1173.22,-174"/>
<polygon fill="black" stroke="black" points="1173.22,-177.5 1183.22,-174 1173.22,-170.5 1173.22,-177.5"/>
</g>
<!-- UserEditComponent -->
<g id="node15" class="node">
<title>UserEditComponent</title>
<polygon fill="#ffffb3" stroke="black" points="307.59,-122 176.41,-122 176.41,-86 307.59,-86 307.59,-122"/>
<text text-anchor="middle" x="242" y="-99.8" font-family="Times,serif" font-size="14.00">UserEditComponent</text>
</g>
<!-- UserEditComponent&#45;&gt;AppModule -->
<g id="edge15" class="edge">
<title>UserEditComponent&#45;&gt;AppModule</title>
<path fill="none" stroke="black" d="M242,-122.29C242,-144.21 242,-178 242,-178 242,-178 1173.08,-178 1173.08,-178"/>
<polygon fill="black" stroke="black" points="1173.08,-181.5 1183.08,-178 1173.08,-174.5 1173.08,-181.5"/>
</g>
<!-- AppComponent  -->
<g id="node18" class="node">
<title>AppComponent </title>
<polygon fill="#80b1d3" stroke="black" points="1279.44,-252 1170.56,-252 1170.56,-216 1279.44,-216 1279.44,-252"/>
<text text-anchor="middle" x="1225" y="-229.8" font-family="Times,serif" font-size="14.00">AppComponent </text>
</g>
<!-- AppModule&#45;&gt;AppComponent  -->
<g id="edge17" class="edge">
<title>AppModule&#45;&gt;AppComponent </title>
<path fill="none" stroke="black" stroke-dasharray="1,5" d="M1225,-187.11C1225,-187.11 1225,-205.99 1225,-205.99"/>
<polygon fill="black" stroke="black" points="1221.5,-205.99 1225,-215.99 1228.5,-205.99 1221.5,-205.99"/>
</g>
<!-- AppRoutingModule -->
<g id="node17" class="node">
<title>AppRoutingModule</title>
<polygon fill="#8dd3c7" stroke="black" points="152.27,-122 149.27,-126 128.27,-126 125.27,-122 23.73,-122 23.73,-86 152.27,-86 152.27,-122"/>
<text text-anchor="middle" x="88" y="-99.8" font-family="Times,serif" font-size="14.00">AppRoutingModule</text>
</g>
<!-- AppRoutingModule&#45;&gt;AppModule -->
<g id="edge16" class="edge">
<title>AppRoutingModule&#45;&gt;AppModule</title>
<path fill="none" stroke="black" d="M88,-122.32C88,-145.66 88,-183 88,-183 88,-183 1173.19,-183 1173.19,-183"/>
<polygon fill="black" stroke="black" points="1173.19,-186.5 1183.19,-183 1173.19,-179.5 1173.19,-186.5"/>
</g>
</g>
</svg>
